<svg xmlns="http://www.w3.org/2000/svg" xml:space="preserve" style="enable-background:new 0 0 512 512" viewBox="0 0 512 512"><path d="M392.5 115.8h-34V107c0-17.4-14.2-31.4-31.4-31.4h-15c-.4-31-25.4-55.6-56.2-55.6s-55.8 24.6-56.2 55.4h-15c-17.4 0-31.4 14.2-31.4 31.4v8.8h-34c-11.2 0-20.8 9.2-20.8 20.4v335.6c0 11.2 9.4 20.4 20.8 20.4h273.4c11.2 0 20.8-9.2 20.8-20.4V136c-.2-11.2-9.6-20.2-21-20.2zM255.9 49.4c14.4 0 26.4 11.6 26.8 26h-53.6c.4-14.4 12.4-26 26.8-26zM387.3 467H124.5V140.6h28.8v23h205.4v-23h28.8V467h-.2z"/><path d="M350.9 207h-66.2c-10.4 0-18.8 7.8-18.8 18.2s8.4 18.2 18.8 18.2h66.2c10.4 0 18.8-7.8 18.8-18.2.2-10.6-8.4-18.2-18.8-18.2zM189.1 224.2l-14.2-11c-3.6-2.8-8.6-2.4-11.6 1l-8.2 9c-1.6 1.8-2.4 4-2.2 6.4s1.4 4.4 3.2 6l24.8 19.6c6 4.8 14.6 4.2 20-1.2l43.4-43.4c2.2-2.2 3.2-5 3.2-8s-1.2-5.8-3.2-8l-5-5c-4.4-4.4-11.4-4.4-15.8 0l-34.4 34.6zM350.9 291.4h-66.2c-10.4 0-18.8 7.8-18.8 18.2 0 10.4 8.4 18.2 18.8 18.2h66.2c10.4 0 18.8-7.8 18.8-18.2s-8.4-18.2-18.8-18.2zM189.1 308.6l-14.2-11c-3.6-2.8-8.6-2.2-11.6 1l-8.2 9c-1.6 1.8-2.4 4-2.2 6.4s1.4 4.4 3.2 6l24.8 19.6c6 4.8 14.6 4.2 20-1.2l43.4-43.4c2.2-2.2 3.2-5 3.2-8s-1.2-5.8-3.2-8l-5-5c-4.4-4.4-11.4-4.4-15.8 0l-34.4 34.6zM350.9 373h-66.2c-10.4 0-18.8 7.8-18.8 18.2 0 10.4 8.4 18.2 18.8 18.2h66.2c10.4 0 18.8-7.8 18.8-18.2.2-10.4-8.4-18.2-18.8-18.2zM189.1 390.2l-14.2-11c-3.6-2.8-8.6-2.4-11.6 1l-8.2 9c-1.6 1.8-2.4 4-2.2 6.4s1.4 4.4 3.2 6l24.8 19.6c6 4.8 14.6 4.2 20-1.2l43.4-43.4c4.4-4.4 4.4-11.4 0-15.8l-5-5c-2.2-2.2-5-3.2-8-3.2s-5.8 1.2-7.8 3.2l-34.4 34.4z"/></svg>