<svg xmlns="http://www.w3.org/2000/svg" xml:space="preserve" style="enable-background:new 0 0 512 512" viewBox="0 0 512 512"><path d="M256 52.9c-60.1 0-108.8 48.7-108.8 108.8S195.9 270.6 256 270.6s108.8-48.7 108.8-108.8c0-60.1-48.7-108.8-108.8-108.9zm0 202.6c-51.8 0-93.8-42-93.8-93.8s42-93.8 93.8-93.8 93.8 42 93.8 93.8c-.1 51.8-42 93.8-93.8 93.8z"/><path d="M295.4 162.9h-37.5v-51.8c0-4.2-3.4-7.5-7.5-7.5s-7.5 3.4-7.5 7.5v59.1c0 4.2 3.3 7.6 7.5 7.7h45.1c4.2 0 7.5-3.4 7.5-7.5s-3.4-7.5-7.6-7.5z"/><path d="M397.8 161.8C397.8 83.6 334.2 20 256 20c-78.2 0-141.8 63.6-141.8 141.8 0 78.2 63.6 141.8 141.8 141.8 78.2-.1 141.8-63.7 141.8-141.8zM256 288.5c-69.9 0-126.7-56.8-126.7-126.7S186.1 35 256 35s126.7 56.8 126.7 126.7S325.9 288.5 256 288.5z"/><path d="M462.9 144.2c-.6-3.9-4.2-6.7-8.2-6.3-18 1.7-31.5 17.3-30.6 35.4l1.4 55.4c-14.8 1.5-27.8 10.6-34.2 24l-20.2 42.5c-3.2 6.6-7.7 12.4-13.4 17l-4.2 3.4c-21.4 17.1-33.3 43.4-32.1 70.7l-8.3-3.9c-3.7-1.8-8.2-.2-10 3.6l-22.2 46.6c-1.8 3.7-.2 8.2 3.6 10l102.3 48.7c1.8.9 3.9 1 5.7.3 1.9-.7 3.4-2.1 4.3-3.9l22.2-46.6c1.8-3.7.2-8.2-3.6-10L411 429l-1.1-14.6c-.4-5.7 1.4-11.3 5-15.7l53-64.1c.1-.1.2-.3.3-.4 10.9-15.2 16.7-33.6 16.4-52.3 0-.4 0-.7-.1-1.1l-21.6-136.6zm-76.5 330.3-88.7-42.3 15.7-33 88.7 42.3-15.7 33zm69.8-149.3-52.8 63.9c-6.1 7.4-9.1 16.9-8.4 26.4l.5 6-58.2-27.7c-4.1-25.2 5.7-50.7 25.6-66.6l4.2-3.4c7.5-6 13.5-13.6 17.6-22.2l20.2-42.5c5.3-11.1 17.3-17.3 29.4-15.3L404.7 306c-1.2 2.4-1 5.3.5 7.6 1.5 2.2 4.1 3.5 6.8 3.3 2.7-.2 5.1-1.9 6.2-4.3l33.3-69.9c1.8-3.7.2-8.2-3.6-10-2.4-1.1-4.9-2-7.4-2.7l-1.4-57.1v-.2c-.4-7.4 3.6-14.3 10.2-17.7l20.2 127.7c.2 15.1-4.5 30-13.3 42.5zM208.9 385.9c-1.8-3.7-6.3-5.3-10-3.6l-8.3 3.9c1.3-27.4-10.7-53.7-32.1-70.7l-4.2-3.4c-5.7-4.6-10.3-10.4-13.4-17l-20.3-42.5c-6.4-13.4-19.4-22.6-34.2-24l1.4-55.4c.9-18.1-12.6-33.7-30.6-35.4-4-.4-7.5 2.4-8.2 6.3L27.4 280.7c-.1.4-.1.7-.1 1.1-.2 18.8 5.5 37.1 16.4 52.3.1.1.2.3.3.4l53 64.1c3.7 4.4 5.4 10 5 15.7l-1 14.7-4.4 2.1c-3.7 1.8-5.3 6.3-3.6 10l22.2 46.6c.9 1.8 2.4 3.2 4.3 3.9 1.9.7 3.9.6 5.8-.3l102.3-48.7c3.7-1.8 5.3-6.3 3.6-10l-22.3-46.7zm-100.3 3.2-52.8-63.9c-8.8-12.4-13.6-27.3-13.5-42.6l20.2-127.7c6.6 3.4 10.6 10.3 10.2 17.7v.2l-1.4 57.1c-2.6.7-5 1.6-7.4 2.7-3.8 1.8-5.3 6.3-3.6 10l33.3 69.9c1.1 2.5 3.5 4.1 6.2 4.3 2.7.2 5.3-1 6.8-3.3 1.5-2.2 1.7-5.1.5-7.6l-29.6-62.2c12.1-2 24.1 4.2 29.4 15.3l20.2 42.5c4.1 8.6 10.1 16.2 17.6 22.2l4.2 3.4c20 15.9 29.7 41.4 25.6 66.6l-58.2 27.7.4-6c1.1-9.5-1.9-18.9-8.1-26.3zm17 85.3-15.7-33 88.7-42.3 15.7 33-88.7 42.3z"/></svg>