<svg xmlns="http://www.w3.org/2000/svg" xml:space="preserve" style="enable-background:new 0 0 512 512" viewBox="0 0 512 512"><path d="M177.7 174.3c1.1-42.7 18.2-82.1 49.1-111.4 28.6-27.1 67.5-43.4 107-42.8 3.1 0 6.4-.2 9.3-.1 72.9 3.9 132.5 56.6 146.3 128.1 1.5 8 2.3 16 2.4 24.1v8.7c0 8.8-.9 17.5-2.6 26.2-9.9 49.8-42.3 91.1-88.2 112.6-4.7 2.2-9.2 4-13.6 5.5-.1 0-.3.1-.4 0-12.6-3.9-26.4-6-39.8-8.3-17.2-3-34.6-3.1-51.9-6.1-5.1-.9-9.8-2.4-14.3-4.5-14.9-7-29.7-14.9-45.6-19.6-5-1.5-10.8-2.5-16.2-3.5-.2 0-.3-.1-.4-.2-26-29-39.7-63.3-41-102.8-.1-2.7-.1-4.7-.1-5.9zm91.8 22v28.8c0 .1-.1.2-.2.2h-12c-3.1 0-4.4 1.3-4.4 4.5 0 5.4 0 10.7-.1 16.1 0 3.3 2.6 3.8 5.2 3.8h11.2c.2 0 .2.1.2.2v27.6c0 2.8 2.8 3.1 4.9 3.1 7.5.1 13.9.1 19 0 3.4-.1 4.5-1.7 4.5-5v-25.7c0-.2.1-.3.3-.3 26.7 0 53.4 0 80.1-.1 2.3 0 3.5-1.2 3.5-3.5v-16.5c0-3.4-1.1-4.4-4.5-4.4H298c-.1 0-.2-.1-.2-.2v-27.7c0-.3.1-.4.4-.4 21.1.1 41.9.2 62.7-.6 14.3-.5 30.3-3.4 42.2-11.5 10.8-7.3 18.6-19.6 22.1-32.3 8.2-30-3.9-66.1-36.7-75.1-5.5-1.5-10.7-2.5-15.5-3-9.2-.9-18.9-1.3-29-1-3.6.1-6.5.1-8.7.1-25.3-.3-46.2-.3-62.6-.1-2.9 0-3.4 2.1-3.4 4.6v90.7c0 1-.1 2-.3 3 0 .1-.1.3-.3.3-4.2.1-8.3.1-12.5.1-2.1 0-3.5 1.3-3.5 3.4v16.9c0 3 1.6 3.7 4.4 3.7H269c.5.1.5.2.5.3z"/><path d="M377 101.2c9.3 2.6 17.1 11.9 19.8 21 3.1 10.5 2.2 23.1-3.3 32.6-8.3 14.2-26.9 16.4-41.4 16.4h-53.9c-.1 0-.2-.1-.2-.2V99.3c0-.1.1-.2.2-.2h62.1c6.3 0 11.9.7 16.7 2.1zM30.5 444.1c-4.9 0-8.8-2-10.2-7-.6-2.2-.1-6-.1-7.9V296.5c0-2.6-.5-4.8.9-7.2 2-3.6 5.1-5.3 9.2-5.1 10.9.4 22 .1 32.9.1 2.3 0 4 .2 5.2.6 4.2 1.5 6 5 6 9.3v139.4c0 2.1-.2 3.6-.6 4.7-1.4 3.8-5.1 6.1-9.4 6-11.3-.5-22.7-.2-33.9-.2zM268.8 388.9c8.8 3.4 17.6 7 26.3 10.7 19.7 8.5 41.1 8.5 62 6.7 14.1-1.3 28.4-2.4 42-6.7 9.7-3.1 18-8.2 25.6-14.9 3.7-3.3 5.7-5.1 6-5.3 13.4-10.7 34.3-19.8 51.3-11.8 5.7 2.7 9.9 7.6 10.1 14.1.1 5.8-4.4 9.8-7.9 13.8-.3.3-.2.6.2.7 4 1.4 7.8 2.6 7.6 7.8-.3 8.4-4.3 14.3-10.4 19.7-11.8 10.5-24 18.2-38.6 27.6-14.9 9.5-27.7 21.6-45.9 24.7-3.4.6-7.1.6-10.6 1.1-28.5 3.9-56.9 9.2-85.4 13.1-9.1 1.3-17.6 1.9-25.3 1.9-9.1 0-17.8-3-26.6-6.7-32.9-14.1-63.3-29.2-98.1-45.8-7.9-3.8-17.6-8.3-24-10.9-4-1.7-9-3.8-13.3-4.4-3.7-.5-7.5-1-11.2-1.4-4.2-.5-6.5-.8-7-1-8.4-2.5-8-10.6-8-17.5v-86.5c0-5.6 2.7-9.2 8.1-10.8 26.8-8 55.1-13.3 82.9-14.2 23.7-.8 46.8 3 68.7 11.9 10.3 4.2 20.8 9.6 31 14.7 4.4 2.2 8.6 3.7 13.6 4.6 10 1.6 19.3 2 31.9 2.9 12.5.9 25.9 3.1 38.7 5.6 6.9 1.3 13.8 3 20.5 5 8.9 2.7 17.3 6.3 22.9 14.1 4.4 6.1 5.4 11.6 2.5 18.6-5 12.1-12 22.1-26.2 22.9-1.7.1-4.5-.1-8.3-.6-20.3-2.7-42.6-3.1-61.7-3.9-7.6-.3-15.8-1.6-22.8-1.4-5.8-.1-12.6.5-20.6 1.6-.1-.1-.1 0 0 0z"/></svg>