<svg xmlns="http://www.w3.org/2000/svg" xml:space="preserve" style="enable-background:new 0 0 512 512" viewBox="0 0 512 512"><path d="M305.5 20h.6c4.4 0 7.9 3.5 7.9 7.9v32.9c0 4.4-3.5 7.9-7.9 7.9h-.6c-4.4 0-7.9-3.5-7.9-7.9V27.9c0-4.4 3.6-7.9 7.9-7.9zM332.8 55l28.8-28.7c3.1-3.1 8.2-3.1 11.3 0l.2.2c3.1 3.1 3.1 8.2 0 11.3l-28.8 28.7c-3.1 3.1-8.2 3.1-11.3 0l-.2-.2c-3.1-3.1-3.1-8.2 0-11.3zM242.7 30.7l.3-.3c3.1-3.1 8.1-3.1 11.2 0L278.8 55c3.1 3.1 3.1 8.1 0 11.2l-.3.3c-3.1 3.1-8.1 3.1-11.2 0l-24.6-24.6c-3.1-3.1-3.1-8.1 0-11.2zM505.1 307.1v1.4c-.5 8.4-3.8 15.5-9.9 21.1-.3.2-.3.5 0 .8 13.7 15.4 8.3 37.9-10.5 46-1.4.6-4.8 1.5-10.4 2.8-27.3 6.1-54.6 12.2-81.8 18.2-2.1.5-4 1.2-5.8 2.3-12.5 7.6-25.7 17.6-36.5 24-20.7 12.2-43.2 19.4-67.2 21.5-4.4.4-10.8.6-19.4.6H211c-3 0-6-.3-8.9-1-17.2-3.8-34.4-7.6-51.6-11.5-.4-.1-.5 0-.3.4 5.4 8 11.3 12.8.6 20.6-15.9 11.5-31.8 23-47.7 34.4-5.3 3.8-10.3 5.3-14.6-.6-25.7-35.6-51.3-71.2-77-106.9-4.1-5.7-7.1-11.1-.3-16 16.3-11.8 32.7-23.6 49-35.4 6-4.3 11.5-6.1 16 1.2.2.3.4.4.7.1 36.3-26.6 72.6-53.3 109-79.8 2.4-1.8 4.5-2.2 7.7-2.2 13-.1 25.9-.1 38.7.1.2 0 .4-.2.4-.4v-.2c-4.4-10.6-7.1-20.2-8.1-32.3-1.2-13.9-2.4-27.7-3.5-41.6-.7-8.5-.8-15-.4-19.4 2.7-29 23.8-55.4 53.2-60.7 13-2.4 30.9-1 45.4-1.1 9 0 15.4.4 19.4 1.1 28.7 5.4 49.5 30.6 52.8 58.9.5 4.4.5 10.4-.2 18.2-1 12.6-2 25.1-3 37.7-.6 8.5-1.5 14.9-2.4 19.3-3.6 16.4-10.7 31.3-21.3 44.5-.1.1-.1.3 0 .5.1.1.2.1.2.1 20.8-1.3 45.8 4.1 54.1 26.2.1.4.6.6 1 .4 11.4-4.8 22.8-9.5 34.3-14.2 9-3.7 14.2-5.7 15.5-6 18.2-4.1 33.7 8.3 35.4 26.9zM237.6 152.4c4.3 1.7 8 3.6 13.9 7.1 14.7 8.7 32 8.3 48.4 4.7 5.6-1.2 18.9-4.3 40-9.3 11.1-2.6 23.3-4.4 34.1-.1.8.3 1.1.1.9-.7-4.8-24.8-23.3-44.1-49-44.2h-37.3c-8.3 0-15.5.7-22.2 3.9-15.8 7.6-25.5 20.3-29.1 38 0 .3.1.5.3.6zm65.5 27.7c-22.4 5-41.8 4.3-62.1-7.7-.2-.1-.5 0-.6.2 0 .1-.1.1-.1.2v31.4c0 17.2 2.4 30.2 10.4 44.6.1.3.4.4.7.4h33.7c6 0 11.4 1 12.3 7.5.9 6.3-2.3 17-5.6 23.2-.3.6-.1.9.5 1 17.9 2.1 32.9 1 48.6-8.5 15-9.1 24.9-30.7 28.5-46.9.9-4.1 1.4-9.1 1.5-14.8.1-7.6.1-18.6 0-33 0-4.3-1.1-7.1-5.6-8.3-7.7-2-18.1.7-26.1 2.6-11.9 2.6-24 5.4-36.1 8.1zm183.7 134c4.9-8.2-1.1-18.7-11-18.3-1.5.1-4.2.9-7.9 2.4-39.1 16.1-78.1 32.2-116.9 48.2-1.6.6-3.3 1-5 1H193.7c-5.5 0-11-2-10.5-8.3.2-1.9 1.4-4.8 3.7-8.6C194 318.8 201 307 208 295.3c2.5-4.1 4.6-5.1 9.7-5.1 24.7 0 52.4 5.2 62.3-23.7.1-.3-.1-.7-.4-.8h-85.4c-.3 0-.5.1-.7.2L86.3 344.4c-.3.2-.3.4-.1.7l48.6 67.5c.3.4.6.6 1.1.7 22.6 5 45.3 10.1 68.2 15.2 2.9.7 5.9 1 8.9 1h49.2c8.7 0 15.2-.2 19.5-.6 26.7-2.4 50.9-11.6 72.6-27.5 5.7-4.2 11-7.4 16.5-11.1.9-.6 1.9-1.6 3-2.9 3.3-4 6.5-3.1 10.3-5.6 32.4-20.9 64.9-41.7 97.3-62.5 2.6-1.9 4.4-3.6 5.4-5.2zm-145.9-22.9c-19.3 8.1-39.9 9-60.1 3.6-.3-.1-.6 0-.9.2-6.1 5-12.9 8.4-20.3 10.1-10.5 2.5-26.3 1.5-38.7 1.4-.3 0-.6.2-.8.4L206 330.5c-.1.2-.1.4.1.5.1 0 .1.1.2.1h136.6c1.7 0 3.3-.3 4.9-1 18.2-7.6 36.6-15.2 55.3-22.8.5-.2.8-.8.6-1.3-4-10.4-16.4-15.4-26.7-15.5-10.5-.1-20.9-.2-31.4-.2-1.7-.1-3.2.2-4.7.9zm89.3 81c14.9-3.4 29.8-6.8 44.7-10.1 3.4-.8 7.4-2.2 9-4.8 4.3-7.1 3.4-13-2.9-17.9-.2-.2-.6-.2-.8 0L430 371.6c-1.1.6-1 .8.2.6zM66.4 345.7c-.1-.1-.2-.1-.4-.1L26.6 374c-.1.1-.1.2-.1.4l70.6 97.8c.1.1.2.1.4.1l39.4-28.4c.1-.1.1-.2.1-.4l-70.6-97.8z"/><circle cx="101" cy="437.6" r="16.3"/></svg>