<svg xmlns="http://www.w3.org/2000/svg" xml:space="preserve" style="enable-background:new 0 0 512 512" viewBox="0 0 512 512"><path d="M218.7 84.5c-.5-.1-.7-.3-.7-.8V70.2c0-.4.2-.6.6-.6 14.5-1.3 24-8.6 28.6-21.8.9-2.5 1-5.5 1.4-8.2.1-.4.3-.6.7-.6h13.6c.4 0 .7.2.7.6 2.1 17.9 12.2 27.9 30 30 .4.1.6.3.6.7v13.8c0 .3-.2.5-.5.5-16.6.5-29.2 13.1-29.9 29.9 0 .3-.3.5-.5.5h-14c-.3 0-.5-.1-.5-.4-2.2-17.8-12.2-27.9-30.1-30.1zm25.5-6.7c4.5 3.3 8.3 7.2 11.6 11.8.1.2.4.2.6.1l.1-.1c3.3-4.6 7.2-8.6 11.8-11.9.3-.2.4-.7.2-1 0-.1-.1-.1-.2-.2-4.5-3.2-8.4-7.1-11.6-11.6-.2-.3-.6-.4-.9-.2-.1 0-.1.1-.2.2-3.3 4.7-7.3 8.7-12.1 12-.2.1-.2.3-.1.5 0 .1.1.1.2.1l.4.1c0 .1.1.1.2.2zM171.7 138.2c.4 0 .6.3.6.7v13.8c0 .3-.2.5-.5.5-16.6.4-29.1 13.1-29.9 29.9 0 .3-.3.5-.5.5h-13.8c-.4 0-.7-.2-.7-.6-2.1-17.9-12.2-27.9-30-30-.4-.1-.6-.3-.6-.7v-13.4c0-.4.2-.7.6-.7 17.9-2.1 27.9-12.1 30-30 .1-.4.3-.7.7-.7h13.8c.3 0 .5.2.5.5.6 17.1 12.9 28.5 29.8 30.2zm-25.3 6.8c-4.5-3.2-8.4-7.1-11.6-11.6-.2-.3-.6-.4-.9-.2-.1 0-.1.1-.2.2-3.2 4.7-7.2 8.6-11.9 11.9-.2.1-.2.4-.1.6l.1.1c4.8 3.3 8.8 7.4 12.1 12.1.1.2.4.2.6.1l.1-.1c3.2-4.6 7.2-8.6 11.8-11.9.3-.2.4-.7.2-1-.1-.1-.2-.1-.2-.2zM370.3 108.2c0-.4.3-.6.7-.6h13.8c.4 0 .6.2.6.5.4 2.3.4 4.9 1 6.9 4.3 14 14 21.7 29 23.2.4 0 .6.2.6.6v14c0 .3-.2.5-.5.5-16.6.4-29.2 13.1-29.9 29.9 0 .3-.3.5-.5.5h-13.8c-.4 0-.7-.2-.7-.6-2.1-17.9-12.1-27.9-30-30-.4-.1-.7-.3-.7-.7v-13.8c0-.3.2-.5.5-.5 17.1-.9 28.6-13.2 29.9-29.9zm6.8 25.3c-1.4 3.7-8.2 9.4-11.6 11.7-.2.2-.3.5-.1.7l.1.1c4.7 3.3 8.7 7.3 12 12.1.1.2.4.2.6.1l.1-.1c3.3-4.6 7.2-8.6 11.8-11.9.3-.2.4-.7.2-1 0-.1-.1-.1-.2-.2-4.5-3.1-8.3-6.9-11.4-11.4l-.2-.2c-.7-.4-1.1-.4-1.3.1zM77.6 272.5c5.3-10.7 10.8-22.9 17-31.9 15.8-23 37.4-37.1 65-42.2 4.2-.8 10.5-1.4 18.9-2 23.6-1.5 47.2-3 70.8-4.7 4.7-.3 9.4-.3 14.1 0 22.5 1.5 44.9 3 67.4 4.5 9 .6 15.3 1.2 19 1.7 28.8 4.5 51.5 18.7 67.9 42.6 6.1 8.9 11.6 21.3 17 31.9.1.2.4.3.7.2.1-.1.2-.1.2-.2l2-4.1c.3-.6.3-1.3 0-1.9-2.1-4-4.1-8.1-5.9-12.1-2.3-5 5.5-11.2 9.1-14.6 2.1-2 3.8-2.7 6.9-2.7h29.9c3.2 0 5.4 2.5 6.9 5.4 2.4 4.8 4.8 9.7 7.3 14.5 2.9 5.9-5.2 12.1-9.1 15.8-1.8 1.7-3.6 2.3-6.3 2.3H452c-.3 0-.6.1-.7.4l-3.1 6.4c-.1.3-.1.5.2.6 5.4 2.7 17.2 7.1 20.4 11.9 4.8 7.1 9.6 14.2 14.4 21.4 1.1 1.7 1.7 3.4 1.7 5.5v96.2c0 6.5-2.4 12.1-7.2 16.9-.2.2-.3.5-.3.8-.1 6.4.6 14.1-.7 19.7-3.4 13.8-13.8 18.1-26.9 18h-20.6c-13.3 0-22.9-3.3-27.2-17-.1-.4-.4-.5-.7-.5l-21.9 2.2c-1.4.1-2.8-.1-4.1-.6l-24-10.3c-.4-.2-.9 0-1 .4-1.9 4.7-4 10.5-10.5 10.5H172.4c-5.1 0-7.8-6.6-9.5-10.5-.2-.5-.5-.6-1-.4l-24.5 10.5c-1 .4-2 .6-3.1.5l-22.2-2.2c-.6-.1-1.1.3-1.2.8-4.2 13-13.8 16.6-26.5 16.6H63.6c-12.5 0-22.6-3.5-26.6-16.4-1.9-6-1.1-14.4-1.2-21.3 0-.3-.1-.6-.3-.8-6-6-7.2-11.7-7.3-20.7v-94c0-1.1.6-2.4 1.7-4 5.3-7.6 10.3-15.4 15.5-23 .4-.6 1-1.1 1.7-1.5l17.6-8.6c.3-.2.4-.4.2-.7l-3.1-6.4c-.2-.3-.4-.5-.8-.5H35.3c-3.8 0-8.9-6.4-11.5-9-2.6-2.6-4.3-5.6-2.7-9 2.5-5.3 5.2-10.5 7.8-15.7 1.8-3.5 4.4-4.3 8.4-4.3h29.4c3.9 0 9.2 6.3 11.9 9 6.2 6.2-.4 14.8-3.6 20.9-.2.3-.2.6 0 .9l2.3 4.7c.1.2.4.3.7.2-.5 0-.4-.1-.4-.1zm27.4-19.9c-4.1 7.1-7.9 14.4-11.2 21.9-.1.3 0 .5.3.5h324.2c.2 0 .3-.2.3-.3v-.1c-4.5-9-9.1-19.2-14.5-26.8-16.3-22.9-38.8-33.8-66.7-35.8-24.9-1.8-49.7-3.4-74.6-5-4.8-.3-9.6-.3-14.5 0-25.3 1.7-50.6 3.4-75.9 5-27.5 1.8-53.4 16.4-67.4 40.6zm-67.5 4.5c-.5.9-.1 2 .8 2.5.3.1.5.2.8.2H60c.7 0 1.3-.4 1.6-1l2-4c.5-.9.1-2-.8-2.5-.3-.1-.5-.2-.8-.2H41.1c-.7 0-1.3.4-1.6 1l-2 4zm413.1 1.8c.3.6.9.9 1.5.9h21.1c.9 0 1.7-.7 1.7-1.7 0-.2-.1-.5-.2-.7l-2.1-4.3c-.3-.6-.9-.9-1.5-.9h-21c-.9 0-1.7.7-1.7 1.7 0 .2.1.5.2.7l2 4.3zm-348.1 32 43.1 45.4c.2.2.5.4.8.5 15.5 4.5 31 8.9 46.6 13.3 2.2.6 4.5 1 6.9 1H222c1.3 0 2.5-.3 3.6-.9 4.6-2.5 11.6-6.8 16.8-6.7 9.1.1 18.1.1 27.2 0 5.2 0 11.8 4 16.3 6.5 1.2.7 2.4 1 3.7 1 9.1.2 21.6 1.4 30.3-1 14.8-4.2 29.6-8.4 44.3-12.6 1.2-.4 2.3-1 3.2-1.9l44.6-44.6c.1-.1.1-.4 0-.5-.1-.1-.2-.1-.3-.1H102.8c-.2 0-.4.2-.4.4 0 .1 0 .2.1.2zm77 105.9c51.4-.1 102.8 0 154.2-.1 4.2 0 8.3-.3 12.5-1 29.4-4.6 58.9-9.1 88.4-13.6.3-.1.6-.2.8-.4l33.4-33.4c.3-.3.4-.6.4-1v-23.8c0-.3-.1-.6-.3-.9-3.8-5.8-7.6-11.6-11.6-17.3-.8-1.1-1.8-2-3.1-2.7-6.9-3.6-14-7.1-21.1-10.4-.3-.1-.6-.1-.8.1-18.7 18.7-37.5 37.4-56.3 56.1-1.3 1.3-3.4 2.4-6.1 3.2-16.2 4.7-32.4 9.3-48.6 13.9-2.3.6-4.6 1-6.9 1h-27.7c-1.4 0-2.8-.3-4.1-1-3.9-2-10.9-6.6-15.2-6.6h-22.6c-6.6 0-12.5 7.4-19.3 7.5-9.2.1-18.4.1-27.6.1-2.4 0-4.8-.4-7.1-1-16.7-4.8-33.4-9.5-50.1-14.3-1.9-.5-3.5-1.4-4.7-2.7-18-19-36.1-38-54.1-57.1-.2-.2-.5-.3-.8-.1-7.9 3.7-15.8 7.7-23.7 11.7-1.2.6-2.1 1.4-2.8 2.5-3.8 5.7-7.6 11.3-11.4 17-.2.3-.3.6-.3 1v24c0 .3.1.5.3.7l33.5 33.5c.2.2.5.3.8.4 29.9 4.6 59.8 9.1 89.6 13.8 4.1.6 8.2.9 12.4.9zm288.9-26.5-23.5 23.6c-.2.2-.3.5-.1.8 4.9 6.7 9.8 13.3 14.8 19.8 2.7 3.6 1.8 7.9 2 12.1 0 .3.2.4.5.3 5.9-2.5 7.1-6.5 7.1-12.9v-43.3c0-.8-.3-.9-.8-.4zM50 426.8c.6.3.8.1.7-.5-.7-4.3-.5-8.6 2.2-12.3 4.8-6.5 9.6-12.9 14.5-19.3.1-.2.1-.5 0-.6l-23.7-23.8c-.1-.2-.4-.2-.6 0-.1.1-.1.2-.1.3v44.1c-.1 6.4 1.3 9.3 7 12.1zm140 7.7-13 5.5c-.6.3-.9 1-.7 1.7.2.5.7.8 1.2.8h156.9c.7 0 1.3-.6 1.3-1.3 0-.5-.3-1-.8-1.2l-12.9-5.5c-.3-.1-.4-.5-.3-.8l5.5-12.8c.2-.4.5-.6.9-.4L378 442c.6.2 1.2.3 1.9.3l65.8-6.5c.3 0 .6-.3.6-.6v-12.6c0-.3-.1-.5-.2-.7L428.9 399c-.2-.3-.6-.5-1-.4-27 4.2-54.2 8.3-81.4 12.5-4.2.6-8.4 1-12.7 1H177.3c-4.1 0-8.2-.3-12.3-1-27.1-4.3-54.1-8.4-81.1-12.5-.3 0-.5.1-.7.3L65.9 422c-.1.2-.2.4-.2.6v12.6c0 .3.2.5.5.5l66.1 6.6c.5.1 1 0 1.4-.2l50.2-21.5c.3-.1.6-.1.7.3l5.6 12.9c.3.3.2.6-.2.7zm-95.9 19.3c-11.9-1.3-23.9-2.5-35.9-3.7-3.1-.3-5.1-1.5-6.9-4-.1-.2-.3-.2-.5-.1-.1.1-.1.1-.1.2-1.6 7.8 2.7 11.4 9.9 11.4h26.6c3.2 0 5.3-.8 7.2-3 .2-.2.2-.5 0-.7-.1 0-.2-.1-.3-.1zm323.7 1.2c2.3 2.1 3.8 2.7 7.2 2.7h26.4c7.2 0 11.5-3.6 9.9-11.4-.1-.4-.3-.5-.6-.1-2 2.5-4.4 3.8-7.3 4.1-12 1.1-23.7 2.3-35.2 3.4-.4 0-.7.4-.6.8 0 .2.1.4.2.5z"/><path d="M72.7 311.8c15.6 10.1 31.2 20.3 46.8 30.5 4.5 3 8 5.1 6.8 10.6-.4 2-1.7 3.7-3.8 5.2-8.2 5.7-16.3 11.4-24.5 17.1-3.2 2.2-6.7.8-10-1.3-9.4-5.7-18.8-11.5-28.1-17.3-3.4-2.1-4-4.7-3.7-8.8.5-9.5 1.1-18.9 1.7-28.4.4-5.9 1.5-10.7 8.2-10.7 2.6.1 4.3 1.6 6.6 3.1zm-1.2 34c0 .2.1.3.2.4l21.8 13.4c.2.1.3.1.5 0l11-7.8c.2-.1.2-.4.1-.6l-.1-.1-31.8-20.8c-.2-.1-.5-.1-.6.1 0 .1-.1.1-.1.2l-1 15.2zM386.3 354.4c-3.1-5.3 1.5-8.9 5.9-11.7 15.3-9.9 30.5-19.9 45.7-29.9 3.5-2.3 6.2-3.6 7.9-3.8 6.2-.8 8 4.8 8.3 10.1.6 10.5 1.3 20.9 1.9 31.4.2 2.9-2.4 5.5-5 7.1-9.5 5.9-18.9 11.7-28.4 17.5-4.4 2.7-7.1 1.4-11.3-1.5-6.2-4.4-12.4-8.8-18.6-13.3-3.4-2.6-5.6-4.6-6.4-5.9zm20.6-3.3c-.1.1-.2.3-.1.4 0 0 0 .1.1.1l11.3 8c.1.1.2.1.3 0l21.9-13.5c.1-.1.2-.2.1-.3l-1-15.5c0-.2-.1-.3-.3-.3h-.1l-32.2 21.1zM248.9 366.4h14.2c.3 0 .5.2.5.5v14.2c0 .3-.2.5-.5.5h-14.2c-.3 0-.5-.2-.5-.5v-14.2c0-.3.2-.5.5-.5z"/></svg>