<svg xmlns="http://www.w3.org/2000/svg" xml:space="preserve" style="enable-background:new 0 0 512 512" viewBox="0 0 512 512"><path d="M69.5 292.4c8.8 72.2 61.3 134.1 130.6 155.4 44.5 13.7 93.4 10.6 135.6-9.3 3.6-1.7 7.6-3.7 12-6 2.5-1.3 4.5-2.2 6-2.5 12.3-2.7 23.8 8.3 21.3 20.7-1.5 7.4-5.5 10.5-12.3 14.3-28.9 15.7-61.2 25.1-94.1 26.7-12.7.6-25.6.4-38.2-1-32.9-3.9-63.4-14.4-91.6-31.7-61.6-37.7-102.6-105.2-106-177.5-.1-2.1-.4-4.2-.5-6.2-.1-10.9.3-22.7 1.5-32.4 5-41.2 20-78.1 45.1-110.6 21.1-27.4 48.6-49.7 79.3-64.7 26.5-12.9 54.8-20.3 85-22.1 2.8-.2 7.5-.2 11.2-.5.1 0 .2-.1.2-.2-.1-6.6-.2-13.1-.1-19.3 0-2.3.9-5.5 3.9-5.4 1.3 0 2.5.4 3.4 1.2 13.7 11.1 27.3 22.3 40.9 33.4 6.5 5.3 6.4 10.6 0 16-13.4 11.3-26.7 22.7-40.1 34-.6.5-1.3.9-2.2 1.2-4 1.2-5.4-2.6-5.4-5.7.2-6 .1-12.2-.2-18.5 0-.3-.3-.6-.6-.6-95.6 1-174 72.6-185.1 166.9-.1.9 0 1.8-.2 2.8-.2 1.2-.4 2.4-.4 3.7 0 2-.4 3.7-.4 5.6-.3 11.8.1 21.8 1.4 32.3zM353.9 106.9c-2.2-2.8-3.3-5.9-3.6-9.5-.9-14.4 14.7-24 27.1-16.4 2.8 1.7 5.8 3.7 9 6.1 3.2 2.3 5.4 4.3 6.6 6 4.2 5.8 4.3 13.5.6 19.5-5.1 8.4-16.2 11.1-24.5 5.9-1.6-1-4.7-3.1-9.2-6.3-2.8-2.1-4.9-3.9-6-5.3zM425.5 171.7c-10.5-.8-14.5-9.4-19.9-16.8-6.1-8.4-5.1-19 3.2-25.4 5.9-4.5 14.6-4.8 20.7-.6 1.6 1.1 3.6 3.2 5.9 6.2 3.8 5 8.3 10.5 9.1 16.2 1.7 11.4-7.7 21.3-19 20.4z"/><path d="M273.5 285.3c10.4 12.3 20.8 24.7 31.1 37.1 1.2 1.5 2.4 3 3.4 4.6 5.2 7.6 3.5 16.1.8 24.2-3.3 10-6.7 20-10.2 30-.1.3 0 .5.3.6 3.4 1 8.4 2 6.7 6.9-2 5.9-4 11.8-6 17.8-.9 2.5-3.2 3.3-5.6 2.5-49.9-16.9-99.7-33.9-149.6-50.8-2.8-.9-3.7-2.9-2.7-5.8 1.9-5.9 3.9-11.7 5.9-17.6 1.6-4.7 6.5-2.2 9.5-1.1.2.1.5 0 .6-.3 3.3-9.8 6.6-19.7 10-29.5 3.7-10.7 10.9-17.6 21.7-20.9 2-.6 6.8-1.7 14.3-3.4 10.9-2.4 21.8-4.8 32.6-7.2.3-.1.5-.3.6-.5 1-2.9 2-5.7 2.9-8.3.6-1.6-.5-2.5-1.5-3.7-9.8-11.7-19.6-23.4-29.3-35.1-4.4-5.3-7.7-10.7-7-17.8.3-3.4 1.2-7.2 2.7-11.5l11.7-34.2c.1-.3-.1-.6-.3-.7-3.5-1.3-8.3-1.9-6.6-7.1 1.6-4.8 3.3-9.5 4.9-14.3 1.3-3.8 2.1-7.3 6.8-5.7 50 17 100 34 150 50.9 2.5.9 3.1 3.3 2.3 5.7-2 5.8-3.9 11.6-5.9 17.5-1.6 4.9-6.4 2.2-9.6 1.2-.2 0-.3 0-.4.2-3.9 11.6-7.9 23.1-11.8 34.6-3.3 9.6-9.5 16.1-18.7 19.6-1.7.7-4.8 1.5-9.3 2.6-13.5 3.1-27.1 6.1-40.7 9-.1 0-.2.1-.3.2l-3.2 9.4c-.5.2-.4.6-.1.9zM172 338.6l112.3 38.1c.1.1.3 0 .4-.2 3.6-10.4 7.1-20.8 10.6-31.2.9-2.6 1.7-5.8 1.4-8-.4-2.5-2.5-4.6-4-6.4l-33-39.6c-2.5-3-2.5-5.1-1.2-8.9 1.7-5.2 3.5-10.3 5.3-15.4 1-2.8 2.6-5.1 5.4-5.7 13.3-2.9 26.7-5.8 40-8.8 7.3-1.6 15.4-2.4 20-8.9 1-1.4 2.2-4.1 3.5-8 3.6-10.4 7.1-20.8 10.6-31.1.1-.4-.1-.8-.4-.9l-112.1-38.1c-.3-.1-.7.1-.8.4-4.1 12.1-8.3 24.2-12.4 36.5-.7 2.2-1.1 4.3-1.1 6.5 0 2.1 1.6 4.2 2.9 5.8 11.2 13.4 22.3 26.7 33.5 40.1 2.2 2.6 3.3 4.9 2.3 8.1-.9 2.8-2.8 8.3-5.7 16.7-1.2 3.5-2.8 5.5-6.3 6.3-13.3 2.9-26.5 5.8-39.7 8.7-3.9.9-9.1 2-11.9 3-5.8 2.2-8.7 6.4-10.6 12.1-3.2 9.4-6.3 18.7-9.4 27.9-.3.5-.2.9.4 1zM473.2 218.2c-.4 17.8-23.9 23.8-33.1 8.6-.8-1.4-1.6-3.3-2.3-5.8-1-3.5-2-6.9-3-10.4-2.8-10 3.1-20 13.2-22.4 9.2-2.2 17.6 3.2 21 11.9.6 1.5 1.6 5 3 10.3.9 3.4 1.3 6 1.2 7.8zM458 305c-6.9-1.3-12.7-6.5-14.3-13.4-.4-1.9-.5-5.1-.2-9.6l.6-8.4c.7-8.3 6.4-14.4 14.4-16.2 1.7-.4 4.9-.5 6.7-.1 8.1 2 12.9 7.2 14.5 15.5.2 1.2.2 3.4 0 6.8-.3 4.4-.3 9.9-1.8 13.9-3.2 8.1-11.3 13.1-19.9 11.5zM438.9 372.4c-10.9-2.6-17-14.1-12.5-24.6 1.6-3.8 3.3-7.6 4.9-11.3 7.3-16.8 31.4-13.2 34.1 4.5.9 5.7-1.9 11.4-4.4 17.1-1.8 4.1-3.3 6.8-4.6 8.4-4.2 5-11.1 7.4-17.5 5.9zM391.3 425.8c-6.3-5.4-8.1-14.8-3.9-22 1.9-3.4 5.9-7.1 8.9-10.4 4.1-4.4 6.9-6.9 12.3-7.8 11.4-2 21.7 7.8 20.8 19-.5 6.8-5.4 11.6-9.9 16.4-2.9 3-4.7 4.9-5.6 5.6-6.5 5.1-16.1 4.8-22.6-.8z"/></svg>