<svg xmlns="http://www.w3.org/2000/svg" xml:space="preserve" style="enable-background:new 0 0 512 512" viewBox="0 0 512 512"><path d="m108.8 23.6 13.8-3.5c.4-.1.7.1.8.5L139 82c.1.4-.1.7-.5.8l-13.8 3.5c-.4.1-.7-.1-.8-.5l-15.6-61.4c-.1-.4.1-.8.5-.8zM272.5 492h-30.9c-5.4-.5-9.2-1.2-11.2-2.1-10.9-4.7-17.4-12.5-19.6-23.3-.6-2.7-.8-7.7-.8-14.9v-34.4c0-.3-.1-.5-.3-.6-18.3-11.7-15.2-29.4-15.2-48.3 0-.2-.2-.4-.4-.4-.1 0-.2 0-.3.1-3.9 4-7.9 8-11.9 11.9-3.9 3.8-8 1.7-12.2-1.1-6.1-4.1-12.2-8.3-18.2-12.5-.6-.5-1-.3-1.2.5-1.6 7.8-3.3 15.7-5 23.6-1.3 6-4.9 7.3-10.8 7.3-9.2 0-18.4 0-27.7-.1-6.2 0-7.8-3.6-9-9.2-1.6-7.3-3.1-14.6-4.6-21.8-.1-.6-.5-.8-1-.4-6.2 4.3-12.4 8.6-18.8 12.9-5.2 3.5-8.4 4.1-12.9-.4-6.9-6.8-13.8-13.6-20.6-20.5-3.6-3.7-6.2-7.3-2.8-12.4 4.8-7 9.5-13.9 14.2-20.7.2-.2.1-.6-.1-.8-.1 0-.1-.1-.2-.1-8-1.6-16.1-3.3-24.1-5-6.3-1.4-7.2-5.6-7.2-11.7v-24.4c0-6.6 1.3-9.7 7.8-11.1 7.7-1.7 15.4-3.4 23-4.9.8-.2 1-.6.5-1.2-4.6-6.7-9.3-13.5-14-20.4-3.2-4.8-1.2-8.3 2.6-12.1 6.9-7.1 14-14.1 21.1-21 3.6-3.5 7.2-3.7 11.2-1 6.9 4.7 13.7 9.4 20.5 14.1.2.2.5.1.7-.1 0-.1.1-.1.1-.2 1.4-7 2.9-14 4.4-20.9 1.3-6.3 2.7-10.7 9.9-10.4.5 0 1-.4 1-.9.1-1.5.3-3 .4-4.6 3.8-38 19.2-69.7 46.2-95.1 24.5-23.1 56.7-37.4 90.8-39.9 10.4-.8 17.3.3 26.1.2.2 0 .5-.1.7-.2 6.7-5 13.4-10 20.1-15.1 6.1-4.6 10.1-5.5 15 .9 5 6.6 10 13.2 15 19.9 4.2 5.7 8.8 9.3 15 3.1.7-.7 1.3-2.5 1.7-5.2 1.2-8.4 2.4-16.7 3.6-25.1 1.1-7.7 3.5-11.1 11.5-10 14.6 2.1 29.1 4.1 43.6 6.2 7.6 1.1 7.7 6.9 6.8 13.4-1.1 7.7-2.2 15.3-3.3 23-.7 5.3-.4 9.7 5 11.5 3 1 5.5 0 7.9-1.8 6.7-5 13.4-10 20.1-15.1 9.2-6.9 11.8-4.6 17.9 3.4 12.9 17 21.3 28.1 25 33.4 3.2 4.5.3 9.3-3.7 12.2-7.1 5.3-14.2 10.5-21.3 15.8-1.5 1.1-3.4 2.8-3.9 4.7-2.1 7.2 2.8 9.9 9 10.8 7.6 1.1 15.3 2.2 23 3.3 6.6.9 12.2 2.5 11.1 10.2-1.9 14.1-4 28.3-6 42.4-1.1 7.9-3.6 10.9-11.7 9.8-7.9-1.1-15.8-2.2-23.7-3.4-3.5-.5-5.6-.7-6.2-.7-4.5.3-8.1 5.1-6.9 9.5.3 1.2 1.3 2.9 3 5.1 5.1 6.8 10.1 13.5 15.2 20.3 3.7 4.9 4.8 9.6-.7 13.7-12.1 9.1-24.2 18.2-36.4 27.3-5.5 4.1-9.7 1-13.4-3.8-4.6-6.1-9.3-12.3-13.9-18.4-3.2-4.3-5.7-7.6-10.9-6.4-4.2 1-5.4 4.5-6.1 8.7-1.3 9.1-2.7 18.3-4 27.4-1.1 7.5-6.7 7.7-13.2 6.8-12.1-1.7-24.1-3.5-36.2-5.2-8.9-1.3-13.8-2.2-12.3-12.4 1.3-8.8 2.5-17.6 3.8-26.4 1.1-7.4-5.8-13.4-12.4-8.6-3.3 2.4-10.8 8-22.4 16.7-8.4 6.3-11.7 1.7-16.6-4.7-7.5-9.9-14.9-19.7-22.3-29.7-5.2-7-5.6-10.6 1.5-15.9 7-5.3 14.1-10.6 21.1-15.9 4.8-3.6 6.3-10.3.4-13.7-1.1-.7-3.1-1.2-5.8-1.6-8.9-1.3-17.8-2.6-26.8-3.9-7.5-1.1-7.7-6.6-6.8-13.1 1.8-12.7 3.6-25.4 5.4-38.2 1.3-9 3.6-11.7 12.8-10.4 7.9 1.1 15.8 2.2 23.7 3.4 3.4.5 5.7.5 7.1.1 5.2-1.6 6.8-7.8 3.5-12.4-6-8.2-12.1-16.4-18.3-24.5-1-1.3-1.4-3.3-1.3-6 0-.3-.2-.5-.4-.5-35.3 1-65.4 13.3-90.4 36.8-31.4 29.6-46.2 74.1-39.5 116.6 5.1 32.1 21.3 60.4 46 81.2 6.7 5.6 15.5 10.4 22.2 16.7 8.3 7.8 13.6 17.1 15.9 28.2 2.1 10.4 1.1 24 1 35.3 0 9.9.8 17 10.1 20.9 2.8 1.2 6.7 1.2 9.6 1.2 18.7 0 37.5-.1 56.2-.2 7.9-.1 14.2-2.2 17.1-10 .7-1.9 1-4.6 1-8.3v-25.9c.1-19.6 8.2-35.2 23.9-46.3 6-4.3 11.9-8.7 17.6-13.4.2-.2.6-.2.8.1l9.4 10.5c.5.5.4 1-.1 1.5-5.7 4.7-11.5 9.1-17.2 13.1-9 6.4-14.7 12.9-17.4 23.6-.8 3.1-1.2 8-1.2 14.7 0 7.8-.1 15.6-.1 23.5 0 12.3-5.1 21.7-15.2 28.2-.3.2-.5.6-.5.9V459c.3 19.3-12.9 31.7-31.3 33zm128.9-249.1c4.4 5.4 8.6 11 12.6 16.8.3.5 1 .6 1.5.3l23.8-17.8c.3-.2.4-.7.1-1-5.4-7.2-13.7-16.4-16.5-23.9-5.1-13.6 3.5-28.5 17.8-31.1 2.7-.5 7-.3 12.9.5 5.5.8 11 1.6 16.3 2.4.4.1.9-.2.9-.7l4.3-29.6c.1-.4-.2-.8-.6-.9-7.1-.8-14.1-1.9-21.3-3.1-22-3.8-28.2-29.1-10.5-42.7 5.6-4.3 11.2-8.5 16.8-12.6.3-.2.4-.7.1-1l-18-24c-.2-.3-.7-.4-1-.1-5.6 4.3-11.4 8.7-17.1 13-16.8 12.5-40.4-.2-37.8-21.5.9-7.3 1.9-14.7 3-22.1.1-.5-.3-.9-.7-1l-29.5-4.2c-.4-.1-.8.2-.8.6-.7 5.5-1.5 11-2.3 16.5-1 6.3-2.1 10.7-3.4 13.2-7.8 15.2-28.8 16.3-39.1 3.1-4.7-6-9.3-12-13.8-18-.2-.2-.5-.3-.7-.1l-24.3 18.2c-.2.2-.3.5-.1.7 3 3.9 6 7.9 9 11.8 4.3 5.8 6.9 9.9 7.9 12.5 4.9 13.6-4.1 28.6-18.3 30.8-2.7.4-7.1.2-13.4-.7-5.2-.7-10.4-1.5-15.7-2.3-.4-.1-.8.2-.8.6l-4.2 29.8c0 .3.2.6.5.7 5 .6 10.1 1.3 15.2 2.1 6.9 1 11.6 2.1 14.2 3.4 12.7 6.3 16.8 22.8 8.6 34.2-4.5 6.3-15.5 13.3-22.8 18.7-.3.2-.4.7-.2 1.1l18.1 24.1c.2.2.5.3.8.1 4.6-3.5 9.3-7 14-10.5 4.5-3.3 8-5.4 10.5-6.3 17.6-6.2 33 9 30.6 26.6l-3 21.3c0 .1.1.2.2.3l30 4.2c.5.1.9-.2.9-.7.9-6.6 1.8-13.1 2.6-19.7 2.3-17.6 20.3-28.6 36.1-18.7 1.9 1.5 4.2 3.7 6.6 6.7zM67 263.6c2.1 8-3.1 17.1-11.5 18.9-6.5 1.4-13 2.8-19.5 4.1-.2 0-.3.2-.3.4v18c0 .3.1.5.4.5 5.7 1.1 11.4 2.3 17 3.6 3.4.8 5.9 1.7 7.5 2.8 7.5 4.9 8.9 14.8 3.9 22.2-3.5 5.2-7 10.3-10.5 15.3-.3.4-.2.8.1 1.2L67.5 364c.2.2.6.2.8.1 4.7-3.3 9.4-6.5 14.2-9.7 2.4-1.6 4.3-2.6 5.7-3.1 6.4-2.3 14.3.5 17.9 6.1 1.2 1.9 2.4 5.8 3.7 11.7.9 4.3 1.8 8.6 2.7 12.8.1.3.3.4.5.4h17.8c.2 0 .4-.2.5-.4 1.4-6.4 2.8-12.7 4.2-19 1.9-8.4 10-14 18.2-12.2 2.2.5 5.7 2.4 10.4 5.6 3.8 2.6 7.5 5.2 11.3 7.8.2.2.6.1.8-.1l16-16c.2-.2.3-.5.2-.8-5.3-14.5-17.1-20.4-28.5-29.1-.2-.2-.6-.1-.7.1v.1c-10.6 19.4-33.2 29.6-54.6 23-26.8-8.2-41.7-37.9-29.4-64.3 6.9-15 19.2-24.1 36.7-27.6.2 0 .4-.3.3-.5-2.6-8-4.6-16.1-5.8-24.4 0-.2-.2-.3-.3-.3-.1 0-.2.1-.3.2-1.1 4.6-1.5 8.5-4.8 12.3-5.2 5.9-13.9 6.9-20.5 2.5-5.3-3.6-10.6-7.2-15.8-10.8-.3-.2-.7-.2-.9.1l-13.4 13.3c-.3.3-.3.7-.1 1 3.9 6 11.1 14.8 12.7 20.8zm23.6 33.9c1.7 33.3 47.6 40.9 60.1 10 .3-.7.1-1.4-.4-1.9-11.4-11.9-20.7-25.2-27.8-40.1-.2-.4-.6-.7-1.1-.6-17.7.5-31.7 14.6-30.8 32.6zM288.5 422c0-.4-.3-.7-.7-.7h-61.4c-.4 0-.7.3-.7.7v14.4c0 .4.3.7.7.7h61.4c.4 0 .7-.3.7-.7V422zm-.6 30.8h-61.6c-.3 0-.6.3-.6.6v6.4c0 9.1 7.4 16.5 16.5 16.5h29.9c9.1 0 16.5-7.4 16.5-16.5v-6.4c-.1-.3-.3-.6-.7-.6zM50.6 62.8l53.8 38.5c.3.2.3.6.1.9l-8.4 11.7c-.2.3-.6.3-.9.1L41.5 75.5c-.3-.2-.3-.6-.1-.9l8.4-11.7c.1-.2.5-.3.8-.1z"/><path d="M419.5 157.1c0 34.6-28 62.6-62.6 62.6s-62.6-28-62.6-62.6 28-62.6 62.6-62.6c34.5 0 62.6 28 62.6 62.6zm-15.7 0c0-25.9-21-46.9-46.9-46.9s-46.9 21-46.9 46.9 21 46.9 46.9 46.9 46.9-21 46.9-46.9zM209.7 300.9c-48.7-23.1-73.4-79.2-57.6-130.6 7.9-25.6 23.3-45.9 46.1-60.9.2-.1.4-.1.6.1l7.9 12.5c.1.2.1.4-.1.5-21.4 14.2-35.1 33.6-41.1 58.1-10.1 41.6 10.5 85 48.1 104.7 5.8 3 14.9 6.4 21 10.4 18.9 12.5 29 30.6 30.3 54.4 0 .4-.2.7-.6.7h-14.4c-.2 0-.3-.1-.3-.3-1.5-18.5-9.4-32.5-23.5-41.8-4.7-2.9-11.6-5.6-16.4-7.8zM28.6 155 90 139.7c.4-.1.7.1.8.5l3.5 13.9c.1.4-.1.7-.5.8l-61.4 15.3c-.4.1-.7-.1-.8-.5l-3.5-13.9c-.1-.3.1-.7.5-.8zM406.7 311.7h53.5c.4 0 .7.3.7.7v14.3c0 .4-.3.7-.7.7h-53.5c-.4 0-.7-.3-.7-.7v-14.3c0-.4.3-.7.7-.7zM403.5 353l46.3 38.6c.2.2.2.4.1.6l-9.5 11.4c-.2.2-.4.2-.6.1L393.4 365c-.2-.2-.2-.4-.1-.6l9.5-11.4c.2-.1.5-.2.7 0zM249.9 366.5l14.4-.1c.3 0 .6.3.6.6l.1 22.3c0 .3-.3.6-.6.6l-14.4.1c-.3 0-.6-.3-.6-.6l-.1-22.3c0-.3.2-.6.6-.6zM359.7 374.3H374c.4 0 .7.3.7.7v53.5c0 .4-.3.7-.7.7h-14.3c-.4 0-.7-.3-.7-.7V375c-.1-.4.3-.7.7-.7z"/></svg>