<svg xmlns="http://www.w3.org/2000/svg" xml:space="preserve" style="enable-background:new 0 0 512 512" viewBox="0 0 512 512"><path d="M300.9 23.9c120.5 21.3 212.6 126.6 201.7 252.3-4.3 49.1-24.6 94.4-57.2 131.9-.2.2-.2.5 0 .7 6.8 6.7 15.5 14.5 19.9 21.9 13.9 23.3 1.5 52.7-24.3 59.9-3.5 1-8.2 1.4-14.1 1.4H261.1c-9.4 0-16.8-.2-22.1-.5-109.9-7.6-207.4-85-227.1-196.5C-6.5 190.6 51 89.7 145.2 45c48.5-22.9 102.5-30.5 155.7-21.1zm-18.5 126c0-14.6-11.8-26.4-26.4-26.4-14.6 0-26.4 11.8-26.4 26.4 0 14.6 11.8 26.4 26.4 26.4 14.6 0 26.4-11.8 26.4-26.4zm-52.8 69.3c-.7 7.2 2.7 12 8.3 16.6.3.2.4.5.4.9V326c0 .5-.3.8-.8.8-4.5 0-9.5-.3-13.4.9-15.5 4.8-16.6 27.5-1.2 33.2 2.3.9 6 1.3 11.1 1.3h44.2c4.8 0 8.4-.4 10.6-1.3 16.1-6.2 14.4-29.4-2.2-33.5-3.5-.9-8.4-.5-12.4-.5-.3 0-.6-.3-.6-.6V225.8c0-9.4-1.3-16.3-9.6-20.6-5.2-2.7-14.7-2.7-20.2-1.8-7.7 1.2-13.4 8.1-14.2 15.8z"/></svg>