<svg xmlns="http://www.w3.org/2000/svg" xml:space="preserve" style="enable-background:new 0 0 512 512" viewBox="0 0 512 512"><path d="M324 55c-6.6 4.2-11 9.9-13.2 16.9-1 3.1-1.5 8.5-1.5 16v244c0 18.2-12.3 32.9-29.9 37.4-.3.1-.5.3-.5.6v15c0 .3.2.5.5.5h21.4c6.9 0 8.6 4.4 8.6 10.7v85.5c0 6.8-2 10.4-9.1 10.4h-26.6c-5.6 0-9.3-1.5-10.1-7.3 0-.3-.2-.4-.4-.2-8.8 6.4-16.4 7.5-28.2 7.5H134.9c-8.5 0-16.2-2.5-23-7.4-.2-.1-.4-.1-.5.1 0 0-.1.1-.1.2-1.1 5.9-4.5 7.2-10.2 7.2H75.5c-6.5 0-9.9-2.4-9.9-8.9v-87.1c0-7.2 2.2-10.6 9.6-10.5 6.8.1 13.5.1 20.3 0 .3 0 .5-.2.5-.5.1-36.2.1-72.4 0-108.6 0-5.8.4-10.3 1.2-13.6 3.8-15.1 13.7-24.7 29.9-28.8.3-.1.5-.3.6-.6L148.4 116c.1-.4-.1-.7-.4-.9-5.8-4.1-11.6-8-17.4-11.7-3.7-2.3-4.1-5-4.1-9.5V59.2c0-17 10.9-32.7 27.5-37.3 3.5-1 9.4-1.5 17.5-1.5h38c17.6.1 32.9 11.1 37.4 28.1.9 3.3 1.3 8.8 1.4 16.7.1 13.9.1 24.2 0 31 0 2.7-1.2 4.8-3.5 6.4-6 4.2-12 8.3-18 12.2-.4.3-.6.6-.5 1.1L247 233.4c.1.3.2.5.5.6 16.2 4.1 26.2 13.7 29.9 28.7.8 3.4 1.3 8.3 1.3 14.7 0 25.2-.1 50.4 0 75.6 0 .3.3.6.6.6.1 0 .2 0 .2-.1 6.5-3 10.8-7.5 13-13.6 1-2.7 1.4-7.4 1.4-14V87.3c0-7 .4-12.3 1.3-16.1 3.7-16 13.7-27.1 29.9-33.3.3-.1.5-.3.6-.6 4.7-13.1 18.4-20.8 31.7-15.5 2.5 1 5.8 3.2 9.8 6.5L402.9 58c.2.2.5.3.8.3h26.7c6.5 0 8.1 4.7 8.1 10.5v346.6c0 .4.2.6.5.6 6.1 1.1 7.1 5 7.1 10.8v54.9c0 6.7-2 10.4-9 10.4h-41.4c-6.8 0-10.4-2-10.4-9.1v-57.1c0-4.8.9-8 5.4-9.7.3-.1.5-.1.8-.1.3.1.6 0 .9-.2.3-.2.5-.5.5-.8V176.8c0-.3-.1-.5-.4-.7-31.8-21.3-53.1-35.5-64-42.7-3.3-2.2-4.1-4.5-4.1-8.6V55.3c.1-.4-.1-.5-.4-.3zm-92.6-5.1c-3.3-8.8-12-14.5-21.4-14.6-13.3 0-26.6-.1-39.9 0-12.6 0-21.3 2.5-26.6 14.5-.1.3 0 .6.3.7H231c.2 0 .4-.2.4-.5.1 0 .1-.1 0-.1zm119.2-14.4c-5.7-1.2-10.7 3.3-10.8 9.3-.1 3.9-.1 6.8-.1 8.7 0 .4.2.7.5.9l52.5 35c.1.1.2 0 .2 0V70c0-.5-.2-.9-.6-1.2-11.7-9.7-23.3-19.4-34.9-29.1-2.8-2.4-5.2-3.8-6.8-4.2zM142.2 92.2l15.2 10.2c.3.2.5.2.8.1 19.5-8.1 39.1-8.2 58.6-.1.3.1.6.1.9-.1l15-10c.3-.2.4-.5.4-.8V66.2c0-.3-.2-.5-.5-.5h-90.1c-.5 0-.7.2-.7.7v25.2c0 .3.1.5.4.6zM393 108c0-.1-.1-.2-.2-.3l-52.6-35.1c-.2-.1-.4-.1-.5.1 0 .1-.1.1-.1.2v49.4c0 .1.1.2.2.3l52.6 35.1c.2.1.4.1.5-.1 0-.1.1-.1.1-.2V108zm30.5-34.1c0-.3-.2-.6-.6-.6h-14.1c-.3 0-.6.2-.6.6v135.9c0 .3.2.6.6.6h14.1c.3 0 .6-.2.6-.6V73.9zm-212.8 42.5c-15.3-6.4-30.7-6.4-46.1-.1-.4.2-.8.6-.9 1.1l-20.3 115.2c0 .3.1.5.4.6h13.7c.3 0 .6-.2.6-.5 4-28.2 8.1-56.4 12.1-84.7.8-5.5 1.3-8.7 1.6-9.6 4.3-13.8 22.4-15.7 29.8-3.4 1.1 1.8 1.8 4.3 2.3 7.5 4.4 30 8.7 60 12.9 90 .1.4.4.8.9.8H231c.3 0 .6-.3.6-.6v-.1l-20.4-115.4c0-.4-.2-.7-.5-.8zm-24.3 26.5-12.9 89.7c0 .3.1.5.4.5H201c.2 0 .4-.2.5-.4v-.1c-4.3-29.8-8.6-59.6-13-89.4-.1-.9-.5-1.3-1.2-1.2-.5.1-.9.5-.9.9zm237.1 83.2c0-.3-.2-.6-.6-.6h-14.1c-.3 0-.6.2-.6.6v59.8c0 .3.2.6.6.6h14.1c.3 0 .6-.2.6-.6v-59.8zm-160 44.5c-.4-12.1-10.3-22.2-22.3-22.2H138c-14.6 0-24.9 6.2-26.8 21.9-.1.4.3.8.7.9h150.9c.5 0 .7-.2.7-.6zm-151.6 64.7c13.4 6.6 26.7 13.2 39.8 19.9 4.7 2.4 5.4 4.5 5.4 9.9v111.2c0 .3.2.5.5.5h59.9c.3 0 .5-.2.5-.5V364c0-3.4.9-6.5 3.9-8 13.7-6.9 27.5-13.8 41.3-20.7.3-.2.5-.4.5-.8v-47.6c0-.3-.2-.5-.5-.5H111.9c-.3 0-.5.2-.5.5v47.6c0 .3.2.6.5.8zm311.6-33.1c0-.3-.2-.5-.5-.5h-14.1c-.3 0-.5.2-.5.5v113.1c0 .3.2.5.5.5H423c.3 0 .5-.2.5-.5V302.2zm-310.9 159c3.1 9.1 11.7 15.3 21.4 15.5 2.5 0 5 .1 7.4 0 .3 0 .5-.2.5-.5V367.8c0-.3-.2-.6-.4-.7l-29.6-14.8c-.1-.1-.3 0-.3.1v97.3c-.2 5.3.2 9.2 1 11.5zm145.4 7.5c3.7-4.3 5.6-9.3 5.6-14.9V352.5c0-.2-.2-.3-.3-.3h-.2L233.6 367c-.3.2-.5.4-.5.7V476c0 .4.2.5.5.6 9.4.8 18.1-.5 24.4-7.9zM96.2 401.2c0-.3-.2-.6-.6-.6H81.5c-.3 0-.6.2-.6.6v75c0 .3.2.6.6.6h14.1c.3 0 .6-.2.6-.6v-75zm197.9 0c0-.3-.2-.6-.6-.6h-14.1c-.3 0-.6.2-.6.6v75c0 .3.2.6.6.6h14.1c.3 0 .6-.2.6-.6v-75zm137 30.4c0-.3-.2-.5-.5-.5h-29.4c-.3 0-.5.2-.5.5v44.6c0 .3.2.5.5.5h29.4c.3 0 .5-.2.5-.5v-44.6z"/><path d="M195.7 318.6c13.3 5.2 18.5 20.8 11.4 32.8-9.4 16-32.5 14.2-40.4-2.2-5.7-11.7.5-25.8 12.8-30.7.3-.1.5-.4.5-.7v-15.7c0-.3.2-.5.5-.5h14.3c.3 0 .5.2.5.5v15.7c-.2.4 0 .7.4.8zm-.7 21.1c0-4.2-3.4-7.5-7.5-7.5-4.2 0-7.5 3.4-7.5 7.5 0 4.2 3.4 7.5 7.5 7.5 4.2.1 7.5-3.3 7.5-7.5z"/><circle cx="184" cy="456" r="15.9"/></svg>