<svg xmlns="http://www.w3.org/2000/svg" xml:space="preserve"  viewBox="0 0 512 512"><path d="M327.9 298.4c-1.5 1.2-3 2.4-4.6 3.6 1.6-1.1 3.1-2.3 4.6-3.6zM225.2 320.1c-1.8-.5-3.5-1.1-5.3-1.6 1.8.6 3.5 1.1 5.3 1.6zM238.9 323.1c-1.9-.3-3.7-.6-5.5-1 1.8.4 3.6.7 5.5 1zM204.8 312.1c-1.6-.8-3.2-1.7-4.8-2.6 1.6.9 3.2 1.7 4.8 2.6zM193.1 305.2c-1.5-1-3-2.1-4.4-3.1 1.4 1 2.9 2 4.4 3.1zM363.4 245.3c-2.2 7-5.1 13.8-8.5 20.2 3.5-6.4 6.3-13.1 8.5-20.2zM184.1 298.4c-1.3-1.1-2.5-2.1-3.8-3.3 1.3 1.2 2.5 2.3 3.8 3.3zM354.9 265.5zM334.6 292.4c-1 .9-2 1.9-3 2.8 1-1 2-1.9 3-2.8zM368.5 211.9zM347.7 277c-1.6 2.2-3.2 4.4-4.9 6.4 1.7-2 3.4-4.2 4.9-6.4zM338.3 288.5c-.6.6-1.2 1.3-1.8 1.9.6-.6 1.2-1.2 1.8-1.9zM173.7 288.5l-4.5-5.1c1.4 1.8 2.9 3.5 4.5 5.1zM175.5 290.4l1.9 1.9c-.6-.6-1.3-1.2-1.9-1.9z"/><path d="M431.8 188c-6.9-5-14.5-9.6-20.8-15.2-1.9-1.7-2.5-3.9-1.8-6.5 3.7-12.4 12.1-23.1 14.5-36 2.4-12.4-4.2-21.9-15.9-25.1-9.5-2.6-20.2-2.5-30-3.2-2.8-.2-9.3-.6-10.4-3.8-.8-2.4-1.4-5.3-1.6-8.7-.4-5.4-.8-10.8-1.1-16.2-.5-8.4-2-18.5-8.6-24.6-9.2-8.5-21.3-5-31.3-.4-5.4 2.5-10.8 5-16.2 7.6-3.9 1.8-9.7 4.6-13 1.4-1.9-1.9-3.5-3.9-5.1-6.1l-10.2-14.4C272.7 26 262.2 16 248.1 21.5c-7.8 3.1-13.6 10.6-18.2 17.3-4.3 6.1-8.5 13.2-13.7 18.4-2.6 2.6-5.7 1.7-8.9.5-1.1-.4-2.7-1.1-4.7-2-7.8-3.7-13.5-6.4-17.2-8-5.6-2.6-12.9-4.6-18.9-3.9-8.2 1.1-14.2 6.8-16.7 14.6-3.5 10.8-2.6 22-4 34.4-.4 3.2-.8 7.2-4.5 8.1-15.3 3.8-42.6-2-51.4 14.9-4.2 8.1-2 17.3 1.7 25.6 1.9 4.2 4.3 9.4 7.3 15.4 1.7 3.5 5.6 11.3 3.3 14.3-.8 1-1.7 2-3 3.1-12.6 11.1-39.2 21-34.6 42 1.8 8.3 8.6 14.7 15.2 19.4 5 3.6 13.7 9.2 20.6 15.1 2.1 1.8 2.9 3.9 2.5 6.2-.3 1.4-1.4 4.8-2.2 6.4-3.8 8-6.9 14.5-9.2 19.5-2.6 5.7-4.6 13-3.6 19.2 2.4 14.4 16.3 17.8 28.6 18.6 5.6.4 11.2.8 16.9 1.1 3 .2 9.7.6 10.9 3.4.9 2.1 1.4 4.3 1.6 6.8.6 7.2 1 12.9 1.2 17 .7 13.4 3.8 29.4 20 31.2 6.2.7 13.4-1.6 19.2-4.3 5.5-2.6 11.1-5.1 16.6-7.8 3-1.4 5.6-2.4 7.8-3 3.8-1 5.4 1.1 8 4 1.1 1.2 2 2.4 2.7 3.4 2.7 3.9 6.4 9.2 11.1 15.8 3.9 5.5 9.3 11.2 15.3 13.7 13.4 5.7 24.6-3.6 31.9-13.9 4-5.7 8-11.3 12-17 1.1-1.5 2.5-3.1 4.3-4.8 2-1.9 4.1-1.7 6.6-.8 7.5 2.5 14.7 6.4 21.9 9.7 7.6 3.5 16.9 6.8 25.2 3.8 10.4-3.8 13.8-14.2 14.8-24.4.7-7.3 1-15.3 1.5-22 .3-4.1.6-8.9 5.5-9.8 7.4-1.3 14.9-1.6 22.4-2 8.5-.5 18.9-1.9 25.1-8.5 14.6-15.5-5.4-39.5-9.8-54.9-.7-2.3-.1-4.2 1.6-5.8 6.4-6 14.2-10.8 21.4-15.8 7.2-5.1 14.3-12.1 15.6-20.9 1.6-12-7.3-20.5-16-26.8zm-44.1 23.9c0 72.7-59 131.7-131.7 131.7s-131.7-59-131.7-131.7S183.3 80.2 256 80.2s131.7 59 131.7 131.7z"/><path d="M331.6 295.1c-1.2 1.1-2.5 2.2-3.8 3.3 1.3-1 2.6-2.1 3.8-3.3zM143.5 211.9zM188.7 302c-1.6-1.2-3.1-2.4-4.6-3.6 1.5 1.3 3 2.5 4.6 3.6zM157.1 265.5c-3.5-6.4-6.3-13.1-8.5-20.2 2.1 7.1 5 13.8 8.5 20.2zM342.8 283.4c-1.4 1.7-2.9 3.4-4.5 5.1 1.6-1.6 3.1-3.3 4.5-5.1zM334.6 292.4l1.9-1.9c-.6.6-1.3 1.2-1.9 1.9zM169.2 283.4c-1.7-2.1-3.4-4.2-4.9-6.4 1.5 2.2 3.2 4.4 4.9 6.4zM164.2 277zM175.5 290.4c-.6-.6-1.2-1.3-1.8-1.9.6.7 1.2 1.3 1.8 1.9zM180.4 295.1c-1-.9-2-1.8-3-2.8 1 1 1.9 1.9 3 2.8zM323.3 302c-1.4 1.1-2.9 2.1-4.4 3.1 1.5-1 3-2 4.4-3.1zM312 309.5c-1.6.9-3.2 1.8-4.8 2.6 1.6-.9 3.2-1.7 4.8-2.6zM278.7 322.1c-1.8.4-3.7.7-5.5 1 1.8-.3 3.6-.6 5.5-1zM292.1 318.5c-1.7.6-3.5 1.1-5.3 1.6 1.8-.5 3.5-1 5.3-1.6z"/><path d="M256 99.4c-62.1 0-112.5 50.4-112.5 112.5 0 11.6 1.8 22.9 5.1 33.5 2.2 7 5.1 13.8 8.5 20.2 2.2 4 4.6 7.8 7.2 11.5 1.6 2.2 3.2 4.4 4.9 6.4 1.4 1.7 2.9 3.4 4.5 5.1.6.6 1.2 1.3 1.8 1.9l1.9 1.9c1 .9 2 1.9 3 2.8 1.2 1.1 2.5 2.2 3.8 3.3 1.5 1.2 3 2.4 4.6 3.6 1.4 1.1 2.9 2.1 4.4 3.1 2.2 1.5 4.5 3 6.9 4.3 1.6.9 3.2 1.8 4.8 2.6 4.9 2.5 9.9 4.6 15.1 6.4 1.7.6 3.5 1.1 5.3 1.6 2.7.8 5.4 1.4 8.1 2 1.8.4 3.7.7 5.5 1 5.6.9 11.3 1.3 17.1 1.3 5.8 0 11.5-.4 17.1-1.3 1.9-.3 3.7-.6 5.5-1 2.7-.6 5.5-1.2 8.1-2 1.8-.5 3.5-1.1 5.3-1.6 5.2-1.8 10.3-3.9 15.1-6.4 1.6-.8 3.2-1.7 4.8-2.6 2.4-1.4 4.7-2.8 6.9-4.3 1.5-1 3-2.1 4.4-3.1 1.6-1.2 3.1-2.4 4.6-3.6 1.3-1.1 2.5-2.1 3.8-3.3 1-.9 2-1.8 3-2.8l1.9-1.9c.6-.6 1.2-1.3 1.8-1.9l4.5-5.1c1.7-2.1 3.4-4.2 4.9-6.4 2.6-3.7 5-7.5 7.2-11.5 3.5-6.4 6.3-13.1 8.5-20.2 3.3-10.6 5.1-21.8 5.1-33.5 0-62.2-50.4-112.5-112.5-112.5zm75 79.3c-.6 1.2-2 2.9-4.3 5.2l-84.3 84.3c-3.5 3.5-8.7 4.1-12.8 1.2-.4-.3-1.5-1.4-3.5-3.4-11.9-11.8-23.8-23.7-35.6-35.7-2.3-2.4-6.2-5.6-8.1-8.1-7.6-9.9 5.6-21.4 14.4-12.7 12.8 12.8 25.6 25.6 38.4 38.3.1.1.2.1.3 0 26.4-26.4 52.7-52.7 79.1-79 1.5-1.5 2.8-2.5 3.8-2.9 7.9-3.4 16.4 4.8 12.6 12.8zM211.4 375.1c-.2-.2-.4-.3-.7-.2-16.2 6.7-35.2 20.5-53.4 12.4-14.9-6.6-18.7-21.7-19.7-36.7-.4-5.8-.8-11.9-1.2-18.5 0-.4-.3-.7-.7-.7l-8.3-.6c-.2 0-.5.1-.6.3-18 30.7-36 61.3-54 91.9-1.3 2.3-2.1 4-2.3 5.3-1.2 6.5 4.2 11.6 10.8 11.1 18.5-1.5 36.8-3.1 55.1-4.6.2 0 .4.1.5.3 7.8 16.9 15.5 33.6 23.1 50 .9 1.9 1.7 3.3 2.6 4.1 4.4 4.3 11.8 3.4 14.9-1.9 17.2-29.2 34.3-58.4 51.5-87.7.1-.1.1-.3 0-.4-6.3-7.7-11.6-16-17.6-24.1zM385.2 331.2c-.2-.3-.4-.4-.8-.4l-8.5.7c-.1 0-.2.1-.2.2-1.6 14.8.2 34.1-9.5 46.6-6.7 8.6-16.9 12.6-27.8 11.2-12.6-1.6-25.1-9.2-36.8-14.5-.4-.2-1-.1-1.2.3-5.9 8.1-10.7 15.9-17.4 23.9-.1.1-.1.2 0 .4 16.9 28.8 33.9 57.7 50.8 86.5.9 1.6 1.7 2.7 2.4 3.3 3.1 2.9 7.9 3.3 11.5 1.1 2.2-1.3 3.1-2.9 4.1-5.2 7.8-16.8 15.6-33.6 23.3-50.4.1-.1.2-.2.3-.2 18.5 1.6 37.1 3.1 55.7 4.6 3.6.3 6.9-1.2 8.9-4.3 2.2-3.4 2.1-7.1-.2-11.1-18.2-30.7-36.4-61.6-54.6-92.7z"/></svg>