<svg xmlns="http://www.w3.org/2000/svg" xml:space="preserve" style="enable-background:new 0 0 512 512" viewBox="0 0 512 512"><path d="M255.9 301.9s-.1 0 0 0c-.1 0 0 0 0 0zM255.7 301.8c-.1 0-.1-.1-.1-.1l.1.1zM256.2 301.8s-.1 0 0 0c-.1 0-.1 0 0 0zM256 301.9z"/><path d="M256 20C125.7 20 20 125.7 20 256s105.7 236 236 236 236-105.7 236-236S386.3 20 256 20zm0 424.8c-104.3 0-188.8-84.5-188.8-188.8S151.7 67.2 256 67.2c104.3 0 188.8 84.5 188.8 188.8S360.3 444.8 256 444.8z"/><path d="M286.3 119.7c-21.9-19.1-53.7-13.1-69.9 10.2-10.8 15.5-13.8 34.2-9.3 53 2.9 12.4 6.6 24.5 11 36.4 10.4 28.3 22.9 55.7 37.5 82.3 0 .1.1.1.1.1h.5c.1 0 .1-.1.1-.1.5-.8 1-1.7 1.5-2.7 5.1-10 10.7-20.1 15-30.4l.3-.3c.1-.1.1-.2 0-.3 9.1-19.3 17.2-39 24.2-59.2 6.2-18 12.3-37.6 8.2-56.8-2.9-12.8-9.2-23.6-19.2-32.2z"/><circle cx="256" cy="355.1" r="33" transform="rotate(-67.5 256.002 355.125)"/></svg>